<svg viewBox="3.25 18.119400000000002 206.14285714285714 206.28240000000002" xmlns:xlink="http://www.w3.org/1999/xlink" xmlns="http://www.w3.org/2000/svg" style="max-height: 500px" width="206.14285714285714" height="206.28240000000002"><defs><clipPath transform="translate(3.7 18.8)" id="clip-path"><rect style="fill:none" height="190.96" width="191.3" y="7" x="6.8"/></clipPath><clipPath transform="translate(3.7 18.8)" id="clip-path-2"><polygon style="fill:none" points="25.2 33 174 33 175.6 132.6 26.9 132.6 25.2 33"/></clipPath><clipPath transform="translate(3.7 18.8)" id="clip-path-3"><path style="fill:none" d="M18.5,42.6c24.6-3.2,77.8-8.1,77.8-8.1L145.6,33l31.2,20.2,5.9,72.2-66.4,13.4L24.2,140Z"/></clipPath></defs><g data-name="Layer 2" id="Layer_2"><g data-name="Layer 1" id="Layer_1-2"><rect style="fill:#fdee0a;stroke:#283270;stroke-miterlimit:10;stroke-width:5px" height="199.9" width="199.9" y="21.3" x="6.2"/><g style="clip-path:url(#clip-path)"><g data-name="Layer 2" id="Layer_2-2"><g data-name="Layer 1-2" id="Layer_1-2-2"><g data-name="Layer 2-2" id="Layer_2-2-2"><g data-name="Layer 1-2-2" id="Layer_1-2-2-2"><rect style="fill:#f9ed1d;stroke:#253670;stroke-miterlimit:10;stroke-width:4px" height="200" width="200" y="21.8" x="6.7"/><text style="isolation:isolate;font-size:22px;fill:#231f20;font-family:ArialNarrow, Arial" transform="translate(65.2 48) scale(0.96 1)">TRILLEK</text><g style="isolation:isolate"><text style="isolation:isolate;font-size:16px;fill:#030303;font-family:ArialNarrow, Arial" transform="translate(34.7 167.9)"><tspan xml:space="preserve">DRUŠTVO    </tspan></text></g><g style="isolation:isolate"><text style="isolation:isolate;font-size:16px;fill:none;stroke:#231f20;stroke-miterlimit:10;stroke-width:0.25px;font-family:ArialNarrow, Arial" transform="translate(34.7 167.9)"><tspan xml:space="preserve">DRUŠTVO    </tspan></text></g><text style="isolation:isolate;font-size:16px;fill:#030303;font-family:ArialNarrow, Arial" transform="translate(116.8 167.9)">TRILLEK</text><text style="isolation:isolate;font-size:16px;fill:none;stroke:#231f20;stroke-miterlimit:10;stroke-width:0.25px;font-family:ArialNarrow, Arial" transform="translate(116.8 167.9)">TRILLEK</text><text style="isolation:isolate;font-size:13px;fill:#030303;font-family:ArialNarrow, Arial;letter-spacing:-0.04901592548076923em" transform="translate(16 187)">Društvo za ohranitev starih običajev</text><text style="isolation:isolate;font-size:17.01580047607422px;fill:#030303;font-family:ArialNarrow, Arial" transform="translate(44.3 211.3)">Col 78, 5273 Col</text><g style="clip-path:url(#clip-path-2)"><path style="fill:#f9ed1d;stroke:#273771;stroke-miterlimit:10;stroke-width:6px" transform="translate(3.7 18.8)" d="M207.8,187.9V1.9H0C-.7,7.7-.2,13.5-.3,19.3s-.2,8.8-.4,13.2V62.3c.2,5.9.4,11.9.4,17.9a14.2,14.2,0,0,1-.4,2V210.5H175.9a4.5,4.5,0,0,1,4.7-3.9,4.7,4.7,0,0,1,4.7,3.9H191a4.4,4.4,0,0,1,4.4-3.1h1a4.8,4.8,0,0,1,6.1-2.9,5.5,5.5,0,0,1,2.8,2.6,4.7,4.7,0,0,1,2.5-1.3v-8.1C202.1,197.3,202.1,188.4,207.8,187.9Z"/><text style="isolation:isolate;font-size:27.969736099243164px;fill:#030303;font-family:ErasITC-Bold, Eras Bold ITC;font-weight:700" transform="translate(59.5 49.8) scale(0.98 1)">TRILLEK</text><g style="clip-path:url(#clip-path-3)"><path style="fill:#020202" transform="translate(3.7 18.8)" d="M142.7,71.7c-2.1.3-3.5.5-5,0s-3.4-1.5-3.8,1.3,1.3,2.7,3,3.1c7.1,1.9,13.8,4.4,18.6,10.3s5.6,11.2,3.6,17.5c-4.3,13.6-14.4,20.1-28.1,23a131.8,131.8,0,0,1-34.3,2.7c-15.1-.9-30.6-2.5-42.5-13.2S39.7,97,52.7,81.9c9.3-10.8,22-14.5,35.4-16.6,3.8-.6,7.7-2,11.7-1.3,2.2.4,3.1-1.1,2.9-3-.7-4.8,1.5-9.9-1.5-14.5-.9-1.5.5-1.9,1.5-2.5,3.6-2.2,7.7-3.6,11.1-6.3s5.4-3.7,7.7.7c.5.8,1.9,1.2,3,1.7,8.8,3.9,10.5,6.6,10.1,16.2-.1.7-.1,1.3-.2,2C133,69.3,133.9,67.7,142.7,71.7ZM81.9,74.4c5-2.5,10.1-2.9,15.4-2.7,2,.1,4.9.5,4.9-2.4s-2.9-2.1-4.7-2.1C81.3,67.8,67,73.1,55.9,85c-8.7,9.5-8,19.5-.5,26.9S74.8,123.4,86,125.4s22.3,1.7,33.5.7a80.6,80.6,0,0,0,21.1-4.7c6.1-2.2,10.2-7.1,13.1-12.3s3.6-9.1,1.7-14.6c-2.9-8.1-8.9-11.7-16.1-14.9-3.9-1.7-5.4-1.2-5.4,3.1-.1,9.3-.3,18.7-.4,28-.1,2.1.6,3.3,2.9,2.4s4.9-.2,7.4.2a1.7,1.7,0,0,1,1.7,1.7v.2h0c0,1.3-1.1,1.5-2.1,1.5-3.2,0-6.3-.2-9.4.1s-3.8-1.3-3.7-3.9c.4-10.6.5-21.2,1.1-31.8.3-3.8-1.3-5.2-4.4-5.6-9.7-1.2-19.3-2.3-29-1.4C92.7,74.7,87.3,73.9,81.9,74.4Zm36.7-34c.4,3.5-.2,6.4-.5,9.4s.4,8,.2,12.1c-.3,6.3,6.5,2.6,9.2,5.1.2.2.6.2.9.3,2.1.7,3.3.1,3-2.2s.3-7.5.4-11.3-.4-6.9-4.4-8.9Zm2.8,27.8c-.9.3-2.3-.5-2.7,1.2a2.2,2.2,0,0,0,1.3,2.8h.7l8.7,1.4c1.4.2,1.6-.9,1.8-1.9a1.8,1.8,0,0,0-1.3-2.2h-.5C128,69.6,124.1,68.7,121.4,68.2Z"/><path style="fill:#020202" transform="translate(3.7 18.8)" d="M142.1-14.2c8.3,0,16.6.2,25,.4,4.3-.4,8.7-.6,13-.6.1-2.3.3-4.6-4.1-4.4-11.5.5-22.9,1.8-34.4,2.3h-2A4.1,4.1,0,0,1,142.1-14.2Z"/><path style="fill:#020202" transform="translate(3.7 18.8)" d="M111.1,23.2c.1-5.9,1.2-10.4-.2-15A1.9,1.9,0,0,1,112,5.7h1c1.8,0,2.1,1.1,2.1,2.6a112.2,112.2,0,0,1-.3,14.2c-.5,4,1.2,6,5.6,4.8l2.9-.4c1.2,0,2.4.2,2.3,1.9s-.5,2.9-2.2,2.6c-7.9-1.5-15.9,0-23.8-.9-2.4-.2-3.7-1-3.9-3.9-.4-6.1,1.8-12.1,0-18.1a2.3,2.3,0,0,1,1.7-2.9h.9c1.9,0,1.8,1.6,1.6,2.9-.8,4.9.6,9.9-.6,14.7-.7,2.9.5,4.1,3.5,4.4s5.1-.7,7.7-.7S111,23.6,111.1,23.2Z"/><path style="fill:#020202" transform="translate(3.7 18.8)" d="M70,16.8a34.1,34.1,0,0,1,.4,10.1c-.3,1.5-.5,3.1-2.5,2.9s-2.1-1.8-1.7-3.2c1.4-5.6,0-11.2.4-16.7C66.9,6.7,68,5.3,71,5.4a35.5,35.5,0,0,1,6.4.6c4.3,1.1,6.2,4.9,3.2,7.7s-1.7,7.2-.3,10.8c.4.9,1,1.7,1.4,2.6s.6,1.7-.3,2.1a1.7,1.7,0,0,1-2.3-.4h0c-.1-.1-.2-.2-.2-.3-1.7-3.3-3-6.9-6.5-9-1-.6-.3-1.8.4-2.5l2.7-2.3c1-.9,2.9-1.4,2.1-3.3s-2.8-1.5-4.3-1.7a2.5,2.5,0,0,0-2.9,2.3v.3C70.2,13.7,70.1,15.3,70,16.8Z"/><path style="fill:#020202" transform="translate(3.7 18.8)" d="M160.8,30.3c-7.6,2-6.5-8.4-12.5-8.7-.8,1.7.7,3.3.4,5s.2,4-2.6,3.8-1.6-2.3-1.5-3.7c0-5.7.2-11.5.3-17.2,0-1.1-.7-2.4,1.1-2.6s2.1.9,2.3,2.4-.1,3.6,1.6,5.3c1.6-2.2,3-4.4,4.5-6.4s2.9-2.3,4.2-.8-.7,2.2-1.5,3c-6.4,7-6.2,8.9,1.7,17C159.5,28.1,160.8,28.5,160.8,30.3Z"/><path style="fill:#020202" transform="translate(3.7 18.8)" d="M132.6,30.4c-5.2,1.7-5-.8-5.2-4.9-.2-5.7,1.5-11.4.1-17-.1-.4-.2-.9-.1-1,3.1-2.6,6.9.1,10.3-1.4,1.3-.6,2.4.9,2.5,2.3.4,3-1,2.7-3.3,2-4.5-1.5-5.9-.4-5.3,3.2.3,2,1.3,2,2.7,1.9s2.4.4,2.4,1.9-1.1,1.8-2.4,1.7-3-.3-3.3,1.8a10.2,10.2,0,0,0,1,6.2c.6,1.4,1.6.1,2.4-.2s3.1-1.5,4.6-.4.1,1.5,0,2.3c-.6,2.4-2.5,1.6-4,1.7Z"/><path style="fill:#020202" transform="translate(3.7 18.8)" d="M56.9,16.6c-1,3.2.4,6.8.2,10.4,0,1.7-.5,2.9-2.5,2.9s-1.9-1.7-1.8-3.2c.2-4.7.2-9.5.6-14.2.3-3-.5-4.3-3.6-4.3s-3.8.3-3.5-2.7S48.5,3,50.6,3.4c3.7.7,7.5,1.1,11.2,1.6,1.1.2,2.4.6,2.2,2.2s-1,1.6-1.8,1.3c-6.2-2-4.9,2.5-5.1,5.7C57,14.9,57,15.5,56.9,16.6Z"/><path style="fill:#020202" transform="translate(3.7 18.8)" d="M85.8,25.9c1.5-5-.2-10.8.6-16.5.2-1.3-.5-3.4,1.6-3.5s2.8,1.9,2.5,3.5c-1.3,5.9-.4,11.8-.6,17.6,0,1.5,0,3.2-2.1,3.2S85.6,28.2,85.8,25.9Z"/><path style="fill:#020202" transform="translate(3.7 18.8)" d="M107.1,116.8c-7.3.4-15.1-7.9-15.8-16.6-.5-6.8,8.9-16.4,16.2-16.6s17.9,8.3,17.3,16.7S120,116.1,107.1,116.8Zm14.6-16.7c-.1-5.5-5.2-12.9-14.1-13.2-6.1-.1-12.8,6.5-13.2,13.2s7.1,13.7,12.8,13.9C114.5,114.3,121.4,107.6,121.7,100.1Z"/><path style="fill:#020202" transform="translate(3.7 18.8)" d="M80.8,83.1A17.7,17.7,0,0,1,87.5,85c1.2.7,3.2,1.3,2.1,3.1s-2.4.4-3.5-.2c-5.8-3.5-10.3-.8-14.7,2.9s-4.4,7.9-3.6,12.6c1.5,7.8,9.7,11.9,17.1,9.1,1.3-.5,3.5-2.8,4.4.2s-2.2,2.3-3.7,2.9c-7.4,2.7-12.9-.6-18-5.6S64,99.4,65.3,93.8,75.3,83.2,80.8,83.1Z"/></g><text style="isolation:isolate;font-size:18.40114402770996px;fill:#030303;font-family:ArialNarrow, Arial" transform="translate(37.8 173.2)">DRUŠTVO</text><text style="isolation:isolate;font-size:18.40114402770996px;fill:none;stroke:#273771;stroke-miterlimit:10;stroke-width:0.5px;font-family:ArialNarrow, Arial" transform="translate(37.8 173.2)">DRUŠTVO</text><text style="isolation:isolate;font-size:18.40114402770996px;fill:#030303;font-family:ArialNarrow, Arial" transform="translate(115.5 173.2)">TRILLEK</text><text style="isolation:isolate;font-size:18.40114402770996px;fill:none;stroke:#273771;stroke-miterlimit:10;stroke-width:0.5px;font-family:ArialNarrow, Arial" transform="translate(115.5 173.2)">TRILLEK</text><text style="isolation:isolate;font-size:13.390836715698242px;fill:#030303;font-family:ArialNarrow, Arial" transform="translate(20.3 191.7)">Društvo za ohranitev starih običajev</text><text style="isolation:isolate;font-size:14.878706932067871px;fill:#030303;font-family:ArialNarrow, Arial" transform="translate(61.8 213.4)">Col 78, 5273 Col</text><polygon style="fill:none" points="20.3 51.8 22.2 51.8 186.4 51.8 186.4 157.2 27.9 158.8 26.9 144 20.3 51.8"/><polyline style="fill:none" points="28.9 51.8 186.4 51.8 186.4 154.6 28.9 154.6"/><polygon style="fill:none" points="186.4 51.8 186.4 151.4 28.9 151.4 186.4 51.8"/></g></g></g></g></g></g></g></g></svg>