<svg xmlns="http://www.w3.org/2000/svg" xmlns:xlink="http://www.w3.org/1999/xlink" viewBox="0 0 204 218.7"><defs><clipPath id="clip-path" transform="translate(0 14.7)"><path d="M22.8,43c23.1-3,73-7.6,73-7.6L142.1,34l29.4,19,5.6,67.8-62.5,12.6-86.5,1.1Z" style="fill:none"/></clipPath></defs><g id="Layer_2" data-name="Layer 2"><g id="Layer_1-2" data-name="Layer 1"><rect x="2" y="16.7" width="200" height="200" style="fill:#fdee0a;stroke:#283270;stroke-miterlimit:10;stroke-width:4px"/><g style="clip-path:url(#clip-path)"><path d="M139.4,70.3c-1.9.3-3.3.5-4.7,0s-3.1-1.3-3.5,1.3,1.2,2.5,2.8,2.9c6.6,1.8,12.9,4.1,17.4,9.7s5.3,10.6,3.4,16.4c-4,12.8-13.5,19-26.3,21.7a125.5,125.5,0,0,1-32.3,2.5c-14.2-.9-28.7-2.4-39.9-12.4S42.7,94.1,54.9,79.9c8.8-10.1,20.7-13.6,33.2-15.6,3.6-.5,7.2-1.9,11.1-1.2,2,.4,2.9-1,2.6-2.8-.6-4.5,1.5-9.3-1.3-13.6-.9-1.4.4-1.8,1.4-2.4,3.4-2,7.2-3.3,10.4-5.9s5.1-3.4,7.2.7c.5.8,1.8,1.1,2.8,1.6,8.3,3.7,9.9,6.2,9.5,15.2a13.7,13.7,0,0,1-.2,1.9C130.4,68.1,131.2,66.6,139.4,70.3ZM82.3,72.9c4.7-2.3,9.5-2.7,14.4-2.5,1.9.1,4.7.5,4.7-2.2s-2.7-2.1-4.4-2c-15.2.5-28.7,5.5-39.1,16.7-8.2,8.9-7.6,18.3-.4,25.3S75.6,119,86.2,120.8a117.9,117.9,0,0,0,31.4.7,79.6,79.6,0,0,0,19.9-4.4c5.7-2.1,9.5-6.7,12.3-11.6s3.4-8.6,1.5-13.7c-2.6-7.6-8.3-11-15-14-3.7-1.6-5.1-1.2-5.2,2.9l-.3,26.3c-.1,2,.5,3.1,2.7,2.3s4.7-.2,6.9.2a1.6,1.6,0,0,1,1.7,1.9c-.1,1.2-1.1,1.3-2,1.4a88.1,88.1,0,0,0-8.9,0c-2.9.3-3.5-1.2-3.4-3.6.3-10,.4-19.9,1.1-29.9.2-3.5-1.3-4.9-4.3-5.3-9-1.1-18-2.1-27.2-1.3C92.4,73.2,87.4,72.4,82.3,72.9ZM116.8,41c.4,3.3-.2,6-.5,8.8s.4,7.5.2,11.4c-.3,5.9,6.1,2.4,8.6,4.8.2.2.6.2.9.3,1.9.6,3.1,0,2.9-2.1-.4-3.6.2-7.1.3-10.6s-.4-6.5-4.1-8.4Zm2.6,26.1c-.8.2-2.1-.5-2.5,1.1s.4,2.5,1.8,2.7l8.3,1.3c1.3.2,1.5-.8,1.6-1.7s-.3-2.3-1.7-2.2S122,67.6,119.4,67.1Z" transform="translate(0 14.7)"/><path d="M59.2-6.9c6.2.4,12.2-1,18.3-1.4,15.9-.9,31.7-2.3,47.5-3.5l13.4-.7c10.8-.5,21.5-1.7,32.3-2.2,5.3-.2,3.6,3.4,3.9,5.9s.1,4.3-3.5,4.3c-12.6.1-25.1-.7-37.6-.5-17.6.2-35.2-.6-52.8-.5C73.6-5.5,66.3-4.7,59.2-6.9Z" transform="translate(0 14.7)"/><path d="M109.8,24.8c0-5.5,1.1-9.8-.2-14.1-.4-1.3.4-2.4,2-2.5s1.9,1.1,1.9,2.5a98.1,98.1,0,0,1-.3,13.3c-.4,3.8,1.2,5.7,5.2,4.6a9,9,0,0,1,2.8-.4c1.1,0,2.3.2,2.2,1.7s-.5,2.8-2.1,2.5c-7.4-1.4-14.9,0-22.4-.8-2.2-.3-3.4-1-3.6-3.7-.4-5.7,1.6-11.3,0-17a2.3,2.3,0,0,1,2.4-2.8c1.8,0,1.7,1.5,1.5,2.7-.7,4.6.6,9.3-.5,13.8-.7,2.8.4,3.8,3.3,4.1s4.7-.6,7.2-.6S109.7,25.2,109.8,24.8Z" transform="translate(0 14.7)"/><path d="M71.1,18.8a26.8,26.8,0,0,1,.4,9.5c-.3,1.4-.4,2.9-2.4,2.7s-1.9-1.6-1.5-3c1.3-5.2-.1-10.5.3-15.7.3-3,1.4-4.3,4.2-4.2a24,24,0,0,1,6,.6c4,1,5.9,4.5,3,7.2s-1.6,6.7-.3,10.1a14.9,14.9,0,0,0,1.4,2.4c.3.7.5,1.6-.3,2a1.6,1.6,0,0,1-2.4-.7c-1.6-3.1-2.8-6.5-6.1-8.4-1-.7-.3-1.7.4-2.4s1.7-1.4,2.5-2.1,2.7-1.4,2-3.2-2.6-1.3-4.1-1.6-2.5.9-2.7,2.5S71.3,16.9,71.1,18.8Z" transform="translate(0 14.7)"/><path d="M156.5,31.5c-7.2,1.8-6.1-7.9-11.8-8.2-.8,1.6.7,3.1.4,4.7s.2,3.7-2.4,3.6-1.5-2.2-1.5-3.5c0-5.4.3-10.8.3-16.1,0-1.1-.7-2.3,1-2.5s2,.8,2.2,2.3-.1,3.4,1.5,4.9l4.2-6c1.1-1.4,2.7-2.1,4-.8s-.7,2.1-1.4,2.9c-6,6.5-5.9,8.3,1.5,15.9C155.3,29.4,156.5,29.8,156.5,31.5Z" transform="translate(0 14.7)"/><path d="M129.9,31.5c-4.8,1.7-4.6-.6-4.8-4.5s1.3-10.7.1-16.1c-.1-.2-.3-.7-.1-.8,2.9-2.5,6.5,0,9.6-1.4,1.3-.6,2.3.9,2.4,2.2s-1,2.5-3.1,1.9c-4.3-1.4-5.6-.4-5,3,.3,1.9,1.3,1.8,2.6,1.8s2.2.3,2.2,1.7-1,1.8-2.2,1.7-2.8-.3-3.2,1.7a10.5,10.5,0,0,0,1,5.8c.5,1.3,1.5,0,2.2-.2s3-1.4,4.4-.4.1,1.4-.1,2.2-2.3,1.5-3.7,1.6Z" transform="translate(0 14.7)"/><path d="M58.8,18.6c-.9,3,.4,6.4.2,9.8,0,1.6-.5,2.7-2.3,2.7s-1.8-1.6-1.7-3c.2-4.4.1-8.9.6-13.3.2-2.8-.5-4.1-3.4-4.1s-3.7.3-3.3-2.5,2-2.4,4-2c3.5.7,7,1,10.5,1.6,1.1.1,2.2.5,2.1,2A1.4,1.4,0,0,1,63.8,11C58,9.1,59.2,13.3,59,16.4,58.9,17,58.9,17.6,58.8,18.6Z" transform="translate(0 14.7)"/><path d="M86,27.4c1.3-4.8-.2-10.2.5-15.6.2-1.2-.4-3.2,1.6-3.3s2.6,1.8,2.3,3.3c-1.2,5.6-.4,11.1-.5,16.6-.1,1.4-.1,3-2.1,3S85.8,29.5,86,27.4Z" transform="translate(0 14.7)"/><path d="M106,112.8c-6.9.3-14.2-7.4-14.9-15.7-.4-6.3,8.4-15.4,15.3-15.5s16.8,7.7,16.3,15.7S118.2,112.1,106,112.8ZM119.7,97c0-5.1-4.9-12.1-13.2-12.3-5.7-.2-12,6.1-12.4,12.4s6.7,12.9,12,13.1C113,110.4,119.5,104.1,119.7,97Z" transform="translate(0 14.7)"/><path d="M81.3,81.1a18.4,18.4,0,0,1,6.2,1.7c1.2.7,3,1.3,2,3s-2.2.4-3.2-.2c-5.5-3.3-9.8-.8-13.8,2.7s-4.2,7.5-3.4,11.8a11.8,11.8,0,0,0,16,8.6c1.2-.4,3.3-2.6,4.1.2s-2,2.2-3.4,2.7c-7,2.6-12.2-.6-16.9-5.3s-3.4-9.9-2.2-15.2S76.1,81.2,81.3,81.1Z" transform="translate(0 14.7)"/></g><text transform="translate(60.6 42.9) scale(0.96 1)" style="font-size:22px;fill:#231f20;font-family:ArialNarrow, Arial">TRILLEK</text><text transform="translate(30.1 162.8)" style="font-size:16px;fill:#010101;stroke:#231f20;stroke-miterlimit:10;stroke-width:0.25px;font-family:ArialNarrow, Arial"><tspan xml:space="preserve">DRUŠTVO    </tspan><tspan x="78.7" y="0" style="letter-spacing:-0.01416015625em"> </tspan><tspan x="82.1" y="0">TRILLEK</tspan></text><text transform="translate(11.3 181.9)" style="font-size:13px;fill:#010101;font-family:ArialNarrow, Arial;letter-spacing:-0.05003004807692308em">Društvo za ohranitev starih običajev</text><text transform="translate(39.6 206.2)" style="font-size:17.01580047607422px;fill:#010101;font-family:ArialNarrow, Arial">Col 78, 5273 Col</text></g></g></svg>