<svg xmlns="http://www.w3.org/2000/svg" xmlns:xlink="http://www.w3.org/1999/xlink" viewBox="0 0 214.5 232.3"><defs><clipPath id="clip-path" transform="translate(4.1 21.1)"><path d="M22.8,43c23.1-3,73-7.6,73-7.6L142.1,34l29.4,19,5.6,67.8-62.5,12.6-86.5,1.1Z" style="fill:none"/></clipPath><clipPath id="clip-path-2" transform="translate(4.1 21.1)"><polygon points="24.7 30.7 173.5 30.7 175.1 130.3 26.4 130.3 24.7 30.7" style="fill:none"/></clipPath><clipPath id="clip-path-3" transform="translate(4.1 21.1)"><path d="M18,40.3c24.6-3.2,77.8-8.1,77.8-8.1l49.3-1.5,31.2,20.2,6,72.2-66.5,13.4-92,1.2Z" style="fill:none"/></clipPath></defs><g id="Layer_2" data-name="Layer 2"><g id="Layer_1-2" data-name="Layer 1"><rect x="6.1" y="23.1" width="200" height="200" style="fill:#fdee0a;stroke:#283270;stroke-miterlimit:10;stroke-width:4px"/><g style="clip-path:url(#clip-path)"><path d="M139.4,70.3c-1.9.3-3.3.5-4.7,0s-3.1-1.3-3.5,1.3,1.2,2.5,2.8,2.9c6.6,1.8,12.9,4.1,17.4,9.7s5.3,10.6,3.4,16.4c-4,12.8-13.5,19-26.3,21.7a125.5,125.5,0,0,1-32.3,2.5c-14.2-.9-28.7-2.4-39.9-12.4S42.7,94.1,54.9,79.9c8.8-10.1,20.7-13.6,33.2-15.6,3.6-.5,7.2-1.9,11.1-1.2,2,.4,2.9-1,2.6-2.8-.6-4.5,1.5-9.3-1.3-13.6-.9-1.4.4-1.8,1.4-2.4,3.4-2,7.2-3.3,10.4-5.9s5.1-3.4,7.2.7c.5.8,1.8,1.1,2.8,1.6,8.3,3.7,9.9,6.2,9.5,15.2a13.7,13.7,0,0,1-.2,1.9C130.4,68.1,131.2,66.6,139.4,70.3ZM82.3,72.9c4.7-2.3,9.5-2.7,14.4-2.5,1.9.1,4.7.5,4.7-2.2s-2.7-2.1-4.4-2c-15.2.5-28.7,5.5-39.1,16.7-8.2,8.9-7.6,18.3-.4,25.3S75.6,119,86.2,120.8a117.9,117.9,0,0,0,31.4.7,79.6,79.6,0,0,0,19.9-4.4c5.7-2.1,9.5-6.7,12.3-11.6s3.4-8.6,1.5-13.7c-2.6-7.6-8.3-11-15-14-3.7-1.6-5.1-1.2-5.2,2.9l-.3,26.3c-.1,2,.5,3.1,2.7,2.3s4.7-.2,6.9.2a1.6,1.6,0,0,1,1.7,1.9c-.1,1.2-1.1,1.3-2,1.4a88.1,88.1,0,0,0-8.9,0c-2.9.3-3.5-1.2-3.4-3.6.3-10,.4-19.9,1.1-29.9.2-3.5-1.3-4.9-4.3-5.3-9-1.1-18-2.1-27.2-1.3C92.4,73.2,87.4,72.4,82.3,72.9ZM116.8,41c.4,3.3-.2,6-.5,8.8s.4,7.5.2,11.4c-.3,5.9,6.1,2.4,8.6,4.8.2.2.6.2.9.3,1.9.6,3.1,0,2.9-2.1-.4-3.6.2-7.1.3-10.6s-.4-6.5-4.1-8.4Zm2.6,26.1c-.8.2-2.1-.5-2.5,1.1s.4,2.5,1.8,2.7l8.3,1.3c1.3.2,1.5-.8,1.6-1.7s-.3-2.3-1.7-2.2S122,67.6,119.4,67.1Z" transform="translate(4.1 21.1)"/><path d="M59.2-6.9c6.2.4,12.2-1,18.3-1.4,15.9-.9,31.7-2.3,47.5-3.5l13.4-.7c10.8-.5,21.5-1.7,32.3-2.2,5.3-.2,3.6,3.4,3.9,5.9s.1,4.3-3.5,4.3c-12.6.1-25.1-.7-37.6-.5-17.6.2-35.2-.6-52.8-.5C73.6-5.5,66.3-4.7,59.2-6.9Z" transform="translate(4.1 21.1)"/><path d="M109.8,24.8c0-5.5,1.1-9.8-.2-14.1-.4-1.3.4-2.4,2-2.5s1.9,1.1,1.9,2.5a98.1,98.1,0,0,1-.3,13.3c-.4,3.8,1.2,5.7,5.2,4.6a9,9,0,0,1,2.8-.4c1.1,0,2.3.2,2.2,1.7s-.5,2.8-2.1,2.5c-7.4-1.4-14.9,0-22.4-.8-2.2-.3-3.4-1-3.6-3.7-.4-5.7,1.6-11.3,0-17a2.3,2.3,0,0,1,2.4-2.8c1.8,0,1.7,1.5,1.5,2.7-.7,4.6.6,9.3-.5,13.8-.7,2.8.4,3.8,3.3,4.1s4.7-.6,7.2-.6S109.7,25.2,109.8,24.8Z" transform="translate(4.1 21.1)"/><path d="M71.1,18.8a26.8,26.8,0,0,1,.4,9.5c-.3,1.4-.4,2.9-2.4,2.7s-1.9-1.6-1.5-3c1.3-5.2-.1-10.5.3-15.7.3-3,1.4-4.3,4.2-4.2a24,24,0,0,1,6,.6c4,1,5.9,4.5,3,7.2s-1.6,6.7-.3,10.1a14.9,14.9,0,0,0,1.4,2.4c.3.7.5,1.6-.3,2a1.6,1.6,0,0,1-2.4-.7c-1.6-3.1-2.8-6.5-6.1-8.4-1-.7-.3-1.7.4-2.4s1.7-1.4,2.5-2.1,2.7-1.4,2-3.2-2.6-1.3-4.1-1.6-2.5.9-2.7,2.5S71.3,16.9,71.1,18.8Z" transform="translate(4.1 21.1)"/><path d="M156.5,31.5c-7.2,1.8-6.1-7.9-11.8-8.2-.8,1.6.7,3.1.4,4.7s.2,3.7-2.4,3.6-1.5-2.2-1.5-3.5c0-5.4.3-10.8.3-16.1,0-1.1-.7-2.3,1-2.5s2,.8,2.2,2.3-.1,3.4,1.5,4.9l4.2-6c1.1-1.4,2.7-2.1,4-.8s-.7,2.1-1.4,2.9c-6,6.5-5.9,8.3,1.5,15.9C155.3,29.4,156.5,29.8,156.5,31.5Z" transform="translate(4.1 21.1)"/><path d="M129.9,31.5c-4.8,1.7-4.6-.6-4.8-4.5s1.3-10.7.1-16.1c-.1-.2-.3-.7-.1-.8,2.9-2.5,6.5,0,9.6-1.4,1.3-.6,2.3.9,2.4,2.2s-1,2.5-3.1,1.9c-4.3-1.4-5.6-.4-5,3,.3,1.9,1.3,1.8,2.6,1.8s2.2.3,2.2,1.7-1,1.8-2.2,1.7-2.8-.3-3.2,1.7a10.5,10.5,0,0,0,1,5.8c.5,1.3,1.5,0,2.2-.2s3-1.4,4.4-.4.1,1.4-.1,2.2-2.3,1.5-3.7,1.6Z" transform="translate(4.1 21.1)"/><path d="M58.8,18.6c-.9,3,.4,6.4.2,9.8,0,1.6-.5,2.7-2.3,2.7s-1.8-1.6-1.7-3c.2-4.4.1-8.9.6-13.3.2-2.8-.5-4.1-3.4-4.1s-3.7.3-3.3-2.5,2-2.4,4-2c3.5.7,7,1,10.5,1.6,1.1.1,2.2.5,2.1,2A1.4,1.4,0,0,1,63.8,11C58,9.1,59.2,13.3,59,16.4,58.9,17,58.9,17.6,58.8,18.6Z" transform="translate(4.1 21.1)"/><path d="M86,27.4c1.3-4.8-.2-10.2.5-15.6.2-1.2-.4-3.2,1.6-3.3s2.6,1.8,2.3,3.3c-1.2,5.6-.4,11.1-.5,16.6-.1,1.4-.1,3-2.1,3S85.8,29.5,86,27.4Z" transform="translate(4.1 21.1)"/><path d="M106,112.8c-6.9.3-14.2-7.4-14.9-15.7-.4-6.3,8.4-15.4,15.3-15.5s16.8,7.7,16.3,15.7S118.2,112.1,106,112.8ZM119.7,97c0-5.1-4.9-12.1-13.2-12.3-5.7-.2-12,6.1-12.4,12.4s6.7,12.9,12,13.1C113,110.4,119.5,104.1,119.7,97Z" transform="translate(4.1 21.1)"/><path d="M81.3,81.1a18.4,18.4,0,0,1,6.2,1.7c1.2.7,3,1.3,2,3s-2.2.4-3.2-.2c-5.5-3.3-9.8-.8-13.8,2.7s-4.2,7.5-3.4,11.8a11.8,11.8,0,0,0,16,8.6c1.2-.4,3.3-2.6,4.1.2s-2,2.2-3.4,2.7c-7,2.6-12.2-.6-16.9-5.3s-3.4-9.9-2.2-15.2S76.1,81.2,81.3,81.1Z" transform="translate(4.1 21.1)"/></g><text transform="translate(64.7 49.4) scale(0.96 1)" style="font-size:22px;fill:#231f20;font-family:ArialNarrow, Arial">TRILLEK</text><text transform="translate(34.2 169.3)" style="font-size:16px;fill:#010101;stroke:#231f20;stroke-miterlimit:10;stroke-width:0.25px;font-family:ArialNarrow, Arial"><tspan xml:space="preserve">DRUŠTVO    </tspan><tspan x="78.7" y="0" style="letter-spacing:-0.01416015625em"> </tspan><tspan x="82.1" y="0">TRILLEK</tspan></text><text transform="translate(15.5 188.3)" style="font-size:13px;fill:#010101;font-family:ArialNarrow, Arial;letter-spacing:-0.05003004807692308em">Društvo za ohranitev starih običajev</text><text transform="translate(43.7 212.6)" style="font-size:17.01580047607422px;fill:#010101;font-family:ArialNarrow, Arial">Col 78, 5273 Col</text><g style="clip-path:url(#clip-path-2)"><rect x="3" y="20.7" width="208.5" height="208.55" style="fill:#fdee0d;stroke:#283371;stroke-miterlimit:10;stroke-width:6px"/><text transform="translate(59.5 49.8) scale(0.98 1)" style="font-size:27.969736099243164px;fill:#010101;font-family:ErasITC-Medium, Eras Medium ITC;font-weight:500">TRILLEK</text><g style="clip-path:url(#clip-path-3)"><path d="M142.2,69.4c-2.1.3-3.5.5-5,0s-3.4-1.5-3.8,1.3,1.3,2.7,3,3.1c7.1,1.9,13.8,4.4,18.6,10.3s5.6,11.2,3.6,17.5c-4.3,13.6-14.4,20.1-28,23a132.9,132.9,0,0,1-34.4,2.7c-15.1-.9-30.6-2.5-42.5-13.2S39.2,94.6,52.2,79.6c9.4-10.8,22-14.5,35.4-16.6,3.9-.7,7.7-2,11.7-1.3,2.2.4,3.2-1.1,2.9-3-.7-4.8,1.5-9.9-1.4-14.5-1-1.5.4-1.9,1.4-2.5,3.7-2.2,7.7-3.6,11.2-6.3s5.4-3.7,7.6.7c.5.8,1.9,1.2,3,1.7,8.8,3.9,10.5,6.6,10.1,16.2a13.6,13.6,0,0,1-.2,2C132.6,67,133.4,65.3,142.2,69.4ZM81.4,72.1c5-2.5,10.1-2.9,15.4-2.7,2,.1,4.9.5,4.9-2.4s-2.9-2.1-4.7-2.1c-16.2.5-30.5,5.9-41.5,17.8-8.8,9.5-8.1,19.5-.5,26.9s19.3,11.5,30.6,13.5,22.2,1.7,33.4.7a81.3,81.3,0,0,0,21.2-4.7c6-2.2,10.1-7.1,13-12.3s3.6-9.2,1.7-14.6c-2.9-8.1-8.9-11.7-16-14.9-4-1.7-5.5-1.2-5.5,3-.1,9.4-.3,18.8-.4,28.1,0,2.1.6,3.2,2.9,2.4s4.9-.2,7.4.2a1.9,1.9,0,0,1,1.8,2c-.1,1.3-1.2,1.5-2.2,1.5-3.1,0-6.3-.2-9.4,0s-3.7-1.2-3.7-3.8c.4-10.6.5-21.2,1.2-31.8.2-3.8-1.4-5.2-4.5-5.6-9.6-1.2-19.2-2.3-29-1.4C92.2,72.4,86.8,71.6,81.4,72.1Zm36.7-34c.4,3.5-.2,6.4-.5,9.4s.4,8,.2,12.1c-.3,6.3,6.5,2.6,9.2,5.1.2.2.6.2.9.3,2.1.7,3.3.1,3.1-2.2s.2-7.6.4-11.3-.5-6.9-4.4-9Zm2.8,27.8c-.9.2-2.3-.5-2.6,1.2a2.1,2.1,0,0,0,1.9,2.9l8.8,1.4c1.3.2,1.5-.9,1.7-1.9s-.4-2.4-1.8-2.3S123.7,66.4,120.9,65.9Z" transform="translate(4.1 21.1)"/><path d="M56.8-12.8c6.6.3,13-1.1,19.5-1.5,16.9-1.1,33.7-2.5,50.5-3.7,4.8-.4,9.6-.6,14.3-.8,11.5-.5,22.9-1.8,34.4-2.3,5.6-.3,3.8,3.6,4.1,6.2s.1,4.6-3.7,4.6c-13.3.1-26.7-.7-40-.6-18.7.2-37.5-.6-56.2-.5C72.1-11.4,64.3-10.5,56.8-12.8Z" transform="translate(4.1 21.1)"/><path d="M110.6,20.9c.1-5.9,1.2-10.4-.2-15-.4-1.4.4-2.6,2.2-2.6s2,1.1,2,2.6a95.9,95.9,0,0,1-.3,14.2c-.4,4,1.3,6,5.6,4.8l2.9-.4c1.2,0,2.4.2,2.4,1.9s-.6,2.9-2.3,2.6c-7.9-1.5-15.9,0-23.8-.9-2.4-.2-3.7-1-3.9-3.9-.4-6.1,1.8-12.1,0-18.1a2.4,2.4,0,0,1,2.6-3c1.9,0,1.8,1.6,1.6,2.9-.7,4.9.6,9.9-.6,14.7-.7,2.9.5,4.1,3.5,4.4s5.1-.7,7.7-.7S110.5,21.3,110.6,20.9Z" transform="translate(4.1 21.1)"/><path d="M69.5,14.5a30.4,30.4,0,0,1,.4,10.1c-.3,1.5-.5,3.1-2.5,2.9s-2.1-1.8-1.7-3.2c1.4-5.6,0-11.2.4-16.7.3-3.2,1.4-4.6,4.4-4.5a33.1,33.1,0,0,1,6.4.6c4.3,1.1,6.3,4.9,3.2,7.7s-1.7,7.2-.3,10.8c.4.9,1,1.7,1.4,2.5s.6,1.8-.3,2.2a1.7,1.7,0,0,1-2.5-.8c-1.6-3.3-3-6.9-6.5-9-1-.6-.2-1.8.5-2.5L75,12.3c1-.9,2.9-1.4,2.2-3.3s-2.8-1.5-4.4-1.7-2.7.9-2.9,2.6S69.7,12.5,69.5,14.5Z" transform="translate(4.1 21.1)"/><path d="M160.3,28c-7.6,2-6.4-8.4-12.5-8.7-.8,1.7.8,3.3.4,5s.3,4-2.5,3.8-1.6-2.3-1.6-3.7c0-5.8.3-11.5.3-17.2,0-1.1-.7-2.4,1.1-2.6s2.1.9,2.4,2.4-.1,3.6,1.6,5.3c1.5-2.2,2.9-4.4,4.4-6.4s2.9-2.3,4.2-.8-.7,2.1-1.4,3c-6.4,7-6.3,8.9,1.6,17C159.1,25.8,160.3,26.2,160.3,28Z" transform="translate(4.1 21.1)"/><path d="M132.1,28.1c-5.1,1.7-5-.8-5.2-4.9-.2-5.7,1.5-11.4.1-17.1-.1-.3-.2-.8-.1-.9,3.1-2.7,6.9.1,10.3-1.4,1.3-.6,2.4.9,2.6,2.3.3,3-1.1,2.7-3.3,2-4.6-1.5-6-.4-5.4,3.2.3,2,1.4,1.9,2.7,1.9s2.4.4,2.4,1.9-1.1,1.8-2.3,1.7-3.1-.3-3.4,1.8a10.9,10.9,0,0,0,1,6.2c.6,1.4,1.6.1,2.4-.2s3.1-1.5,4.7-.4.1,1.5-.1,2.3c-.5,2.4-2.5,1.6-4,1.7Z" transform="translate(4.1 21.1)"/><path d="M56.4,14.3c-1,3.2.4,6.8.3,10.4-.1,1.7-.6,2.9-2.6,2.9s-1.9-1.7-1.8-3.2c.2-4.7.2-9.5.6-14.2.3-3-.5-4.3-3.6-4.3s-3.8.3-3.5-2.7S48,.7,50.1,1.1c3.7.7,7.5,1,11.2,1.6,1.1.2,2.4.6,2.2,2.2a1.4,1.4,0,0,1-1.8,1.3c-6.2-2-4.9,2.5-5.1,5.7C56.5,12.6,56.5,13.2,56.4,14.3Z" transform="translate(4.1 21.1)"/><path d="M85.3,23.6c1.5-5-.2-10.8.6-16.5.2-1.4-.5-3.5,1.6-3.5S90.3,5.4,90,7.1c-1.2,5.9-.4,11.7-.6,17.6,0,1.5,0,3.2-2.1,3.2S85.1,25.9,85.3,23.6Z" transform="translate(4.1 21.1)"/><path d="M106.6,114.5c-7.3.4-15.1-7.9-15.8-16.6-.5-6.8,8.9-16.4,16.2-16.6s17.9,8.3,17.4,16.7S119.6,113.8,106.6,114.5Zm14.6-16.7c0-5.5-5.2-12.9-14.1-13.2C101,84.5,94.4,91.1,94,97.8s7,13.7,12.7,13.9C114,112,121,105.3,121.2,97.8Z" transform="translate(4.1 21.1)"/><path d="M80.3,80.8A17.2,17.2,0,0,1,87,82.7c1.2.6,3.2,1.2,2.1,3.1s-2.4.4-3.5-.2c-5.8-3.5-10.3-.9-14.7,2.9s-4.4,7.9-3.5,12.6c1.4,7.7,9.6,11.9,17,9.1,1.3-.5,3.5-2.8,4.4.2s-2.2,2.3-3.7,2.9c-7.4,2.7-12.9-.6-18-5.6s-3.6-10.6-2.3-16.2S74.8,80.9,80.3,80.8Z" transform="translate(4.1 21.1)"/></g><text transform="translate(37.8 173.2)" style="font-size:18.40114402770996px;fill:#010101;stroke:#283371;stroke-miterlimit:10;stroke-width:0.5px;font-family:ArialNarrow, Arial">DRUŠTVO<tspan x="73.8" y="0" style="letter-spacing:-0.014169890040931853em"> </tspan><tspan x="77.7" y="0">TRILLEK</tspan></text><text transform="translate(20.3 191.7)" style="font-size:13.390836715698242px;fill:#010101;font-family:ArialNarrow, Arial">Društvo za ohranitev starih običajev</text><text transform="translate(61.8 213.4)" style="font-size:14.878706932067871px;fill:#010101;font-family:ArialNarrow, Arial">Col 78, 5273 Col</text><polygon points="20.3 51.8 22.2 51.8 186.4 51.8 186.4 157.2 27.9 158.8 26.9 144 20.3 51.8" style="fill:none"/><polyline points="28.9 51.8 186.4 51.8 186.4 154.6 28.9 154.6" style="fill:none"/><polygon points="186.4 51.8 186.4 151.4 28.9 151.4 186.4 51.8" style="fill:none"/></g></g></g></svg>