<svg xmlns="http://www.w3.org/2000/svg" xmlns:xlink="http://www.w3.org/1999/xlink" viewBox="0 0 214.5 232.3"><defs><clipPath id="clip-path" transform="translate(4.7 19.8)"><polygon points="24.2 32 173 32 174.6 131.6 25.9 131.6 24.2 32" style="fill:none"/></clipPath><clipPath id="clip-path-2" transform="translate(4.7 19.8)"><path d="M17.5,41.6c24.6-3.2,77.8-8.1,77.8-8.1L144.6,32l31.2,20.2,5.9,72.2-66.4,13.4L23.2,139Z" style="fill:none"/></clipPath></defs><g id="Layer_2" data-name="Layer 2"><g id="Layer_1-2" data-name="Layer 1"><rect x="6.7" y="21.8" width="200" height="200" style="fill:#fdee0a;stroke:#283270;stroke-miterlimit:10;stroke-width:4px"/><text transform="translate(65.2 48) scale(0.96 1)" style="font-size:22px;fill:#231f20;font-family:ArialNarrow, Arial">TRILLEK</text><text transform="translate(34.7 167.9)" style="font-size:16px;fill:#010101;stroke:#231f20;stroke-miterlimit:10;stroke-width:0.25px;font-family:ArialNarrow, Arial"><tspan xml:space="preserve">DRUŠTVO    </tspan><tspan x="78.7" y="0" style="letter-spacing:-0.01416015625em"> </tspan><tspan x="82.1" y="0">TRILLEK</tspan></text><text transform="translate(16 187)" style="font-size:13px;fill:#010101;font-family:ArialNarrow, Arial;letter-spacing:-0.05003004807692308em">Društvo za ohranitev starih običajev</text><text transform="translate(44.3 211.3)" style="font-size:17.01580047607422px;fill:#010101;font-family:ArialNarrow, Arial">Col 78, 5273 Col</text><g style="clip-path:url(#clip-path)"><rect x="3" y="20.7" width="208.5" height="208.55" style="fill:#fdee0d;stroke:#283371;stroke-miterlimit:10;stroke-width:6px"/><text transform="translate(59.5 49.8) scale(0.98 1)" style="font-size:27.969736099243164px;fill:#010101;font-family:ErasITC-Medium, Eras Medium ITC;font-weight:500">TRILLEK</text><g style="clip-path:url(#clip-path-2)"><path d="M141.7,70.7c-2.1.3-3.5.5-5,0s-3.4-1.5-3.8,1.3,1.3,2.7,3,3.1c7.1,1.9,13.8,4.4,18.6,10.3s5.6,11.2,3.6,17.5c-4.3,13.6-14.4,20.1-28.1,23a132.5,132.5,0,0,1-34.3,2.7c-15.1-.9-30.6-2.5-42.5-13.2S38.7,96,51.7,80.9c9.3-10.8,22-14.5,35.4-16.6,3.8-.6,7.7-2,11.7-1.3,2.2.4,3.1-1.1,2.9-3-.7-4.8,1.5-9.9-1.5-14.5-.9-1.5.5-1.9,1.5-2.5,3.6-2.2,7.7-3.6,11.1-6.3s5.4-3.7,7.7.7c.5.8,1.9,1.2,3,1.7,8.8,3.9,10.5,6.6,10.1,16.2a13.6,13.6,0,0,1-.2,2C132,68.3,132.9,66.7,141.7,70.7ZM80.9,73.4c5-2.5,10.1-2.9,15.4-2.7,2,.1,4.9.5,4.9-2.4s-2.9-2.1-4.7-2.1C80.3,66.8,66,72.1,54.9,84c-8.7,9.5-8,19.5-.5,26.9S73.8,122.4,85,124.4s22.3,1.7,33.5.7a80.6,80.6,0,0,0,21.1-4.7c6.1-2.2,10.2-7.1,13.1-12.3s3.6-9.1,1.7-14.6c-2.9-8.1-8.9-11.7-16.1-14.9-3.9-1.7-5.4-1.2-5.4,3.1-.1,9.3-.3,18.7-.4,28-.1,2.1.6,3.3,2.9,2.4s4.9-.2,7.4.2a1.8,1.8,0,0,1,1.7,2c0,1.3-1.1,1.5-2.1,1.5-3.2,0-6.3-.2-9.4.1s-3.8-1.3-3.7-3.9c.4-10.6.5-21.2,1.1-31.8.3-3.8-1.3-5.2-4.4-5.6-9.7-1.2-19.3-2.3-29-1.4C91.7,73.7,86.3,72.9,80.9,73.4Zm36.7-34c.4,3.5-.2,6.4-.5,9.4s.4,8,.2,12.1c-.3,6.3,6.5,2.6,9.2,5.1.2.2.6.2.9.3,2.1.7,3.3.1,3-2.2s.3-7.5.4-11.3-.4-6.9-4.4-8.9S120.9,41.1,117.6,39.4Zm2.8,27.8c-.9.3-2.3-.5-2.7,1.2a2.2,2.2,0,0,0,2,2.9l8.7,1.4c1.4.2,1.6-.9,1.8-1.9s-.4-2.4-1.8-2.3S123.1,67.7,120.4,67.2Z" transform="translate(4.7 19.8)"/><path d="M56.3-11.5c6.6.3,13-1.1,19.5-1.5,16.9-1,33.7-2.5,50.5-3.7,4.8-.4,9.5-.6,14.3-.8,11.5-.5,22.9-1.8,34.4-2.3,5.6-.3,3.8,3.6,4.1,6.3s.1,4.5-3.7,4.5c-13.4.1-26.7-.7-40-.6-18.8.3-37.5-.6-56.2-.5C71.6-10,63.8-9.2,56.3-11.5Z" transform="translate(4.7 19.8)"/><path d="M110.1,22.2c.1-5.9,1.2-10.4-.2-15A2,2,0,0,1,112,4.6c1.8,0,2.1,1.1,2.1,2.6a111.8,111.8,0,0,1-.3,14.2c-.5,4,1.2,6,5.6,4.8l2.9-.4c1.2,0,2.4.2,2.3,1.9s-.5,2.9-2.2,2.6c-7.9-1.5-15.9,0-23.8-.9-2.4-.2-3.7-1-3.9-3.9-.4-6.1,1.8-12.1,0-18.1a2.4,2.4,0,0,1,2.6-3c1.9,0,1.8,1.6,1.6,2.9-.8,4.9.6,9.9-.6,14.7-.7,2.9.5,4.1,3.5,4.4s5.1-.7,7.7-.7S110,22.6,110.1,22.2Z" transform="translate(4.7 19.8)"/><path d="M69,15.8a30.4,30.4,0,0,1,.4,10.1c-.3,1.5-.5,3.1-2.5,2.9s-2.1-1.8-1.7-3.2c1.4-5.6,0-11.2.4-16.7C65.9,5.7,67,4.3,70,4.4a34.7,34.7,0,0,1,6.4.6c4.3,1.1,6.2,4.9,3.2,7.7s-1.7,7.2-.3,10.8c.4.9,1,1.7,1.4,2.6s.6,1.7-.3,2.1a1.7,1.7,0,0,1-2.5-.8c-1.7-3.3-3-6.9-6.5-9-1-.6-.3-1.8.4-2.5l2.7-2.3c1-.9,2.9-1.4,2.1-3.3s-2.8-1.5-4.3-1.7-2.7.9-2.9,2.6A43.8,43.8,0,0,0,69,15.8Z" transform="translate(4.7 19.8)"/><path d="M159.8,29.3c-7.6,2-6.5-8.4-12.5-8.7-.8,1.7.7,3.3.4,5s.2,4-2.6,3.8-1.6-2.3-1.5-3.7c0-5.7.2-11.5.3-17.2,0-1.1-.7-2.4,1.1-2.6s2.1.9,2.3,2.4-.1,3.6,1.6,5.3c1.6-2.2,3-4.4,4.5-6.4s2.9-2.3,4.2-.8-.7,2.2-1.5,3c-6.4,7-6.2,8.9,1.7,17C158.5,27.1,159.8,27.5,159.8,29.3Z" transform="translate(4.7 19.8)"/><path d="M131.6,29.4c-5.2,1.7-5-.8-5.2-4.9-.2-5.7,1.5-11.4.1-17-.1-.4-.2-.9-.1-1,3.1-2.6,6.9.1,10.3-1.4,1.3-.6,2.4.9,2.5,2.3.4,3-1,2.7-3.3,2-4.5-1.5-5.9-.4-5.3,3.2.3,2,1.3,2,2.7,1.9s2.4.4,2.4,1.9-1.1,1.8-2.4,1.7-3-.3-3.3,1.8a10.9,10.9,0,0,0,1,6.2c.6,1.4,1.6.1,2.4-.2s3.1-1.5,4.6-.4.1,1.5,0,2.3c-.6,2.4-2.5,1.6-4,1.7Z" transform="translate(4.7 19.8)"/><path d="M55.9,15.6c-1,3.2.4,6.8.2,10.4,0,1.7-.5,2.9-2.5,2.9s-1.9-1.7-1.8-3.2c.2-4.7.2-9.5.6-14.2.3-3-.5-4.3-3.6-4.3s-3.8.3-3.5-2.7S47.5,2,49.6,2.4c3.7.7,7.5,1.1,11.2,1.6,1.1.2,2.4.6,2.2,2.2s-1,1.6-1.8,1.3c-6.2-2-4.9,2.5-5.1,5.7C56,13.9,56,14.5,55.9,15.6Z" transform="translate(4.7 19.8)"/><path d="M84.8,24.9c1.5-5-.2-10.8.6-16.5.2-1.3-.5-3.4,1.6-3.5s2.8,1.9,2.5,3.5c-1.3,5.9-.4,11.8-.6,17.6,0,1.5,0,3.2-2.1,3.2S84.6,27.2,84.8,24.9Z" transform="translate(4.7 19.8)"/><path d="M106.1,115.8c-7.3.4-15.1-7.9-15.8-16.6-.5-6.8,8.9-16.4,16.2-16.6s17.9,8.3,17.3,16.7S119,115.1,106.1,115.8Zm14.6-16.7c-.1-5.5-5.2-12.9-14.1-13.2-6.1-.1-12.8,6.5-13.2,13.2s7.1,13.7,12.8,13.9C113.5,113.3,120.4,106.6,120.7,99.1Z" transform="translate(4.7 19.8)"/><path d="M79.8,82.1A17.7,17.7,0,0,1,86.5,84c1.2.7,3.2,1.3,2.1,3.1s-2.4.4-3.5-.2c-5.8-3.5-10.3-.8-14.7,2.9s-4.4,7.9-3.6,12.6c1.5,7.8,9.7,11.9,17.1,9.1,1.3-.5,3.5-2.8,4.4.2s-2.2,2.3-3.7,2.9c-7.4,2.7-12.9-.6-18-5.6S63,98.4,64.3,92.8,74.3,82.2,79.8,82.1Z" transform="translate(4.7 19.8)"/></g><text transform="translate(37.8 173.2)" style="font-size:18.40114402770996px;fill:#010101;stroke:#283371;stroke-miterlimit:10;stroke-width:0.5px;font-family:ArialNarrow, Arial">DRUŠTVO<tspan x="73.8" y="0" style="letter-spacing:-0.014169890040931853em"> </tspan><tspan x="77.7" y="0">TRILLEK</tspan></text><text transform="translate(20.3 191.7)" style="font-size:13.390836715698242px;fill:#010101;font-family:ArialNarrow, Arial">Društvo za ohranitev starih običajev</text><text transform="translate(61.8 213.4)" style="font-size:14.878706932067871px;fill:#010101;font-family:ArialNarrow, Arial">Col 78, 5273 Col</text><polygon points="20.3 51.8 22.2 51.8 186.4 51.8 186.4 157.2 27.9 158.8 26.9 144 20.3 51.8" style="fill:none"/><polyline points="28.9 51.8 186.4 51.8 186.4 154.6 28.9 154.6" style="fill:none"/><polygon points="186.4 51.8 186.4 151.4 28.9 151.4 186.4 51.8" style="fill:none"/></g></g></g></svg>